<svg xmlns="http://www.w3.org/2000/svg" viewBox="0 0 24 24" class="wds-icon">
		<path d="M11.614 1.057a.814.814 0 0 0-.505.396c-.087.164-.089.197-.101 1.856l-.011 1.689-4.269.011-4.268.011-.321.101c-.501.159-.833.365-1.243.775-.4.4-.6.717-.771 1.217L.02 7.42l-.011 4c-.013 4.391-.016 4.322.227 4.903.211.503.382.701 2.061 2.38 1.679 1.679 1.877 1.85 2.38 2.061.591.247.257.236 7.323.236 7.066 0 6.732.011 7.323-.236.503-.211.701-.382 2.38-2.061 1.679-1.679 1.85-1.877 2.061-2.38.243-.581.24-.512.227-4.903l-.011-4-.105-.307c-.171-.5-.371-.817-.771-1.217-.41-.41-.742-.616-1.243-.775l-.321-.101-4.268-.011-4.268-.011-.012-1.689c-.012-1.658-.014-1.692-.101-1.856a.874.874 0 0 0-.213-.254c-.264-.189-.721-.249-1.064-.142m9.802 6.04c.199.099.388.288.487.487.075.151.077.278.077 4.016v3.86l-.107.18c-.133.223-3.08 3.163-3.273 3.266-.135.071-.383.074-6.6.074s-6.465-.003-6.6-.074c-.193-.103-3.14-3.043-3.273-3.266l-.107-.18-.011-3.76c-.008-2.572.002-3.815.031-3.933a1.02 1.02 0 0 1 .686-.721c.085-.025 3.487-.037 9.334-.033 9.012.007 9.203.009 9.356.084m-14.802 2.96a.814.814 0 0 0-.505.396c-.08.15-.09.236-.102.857l-.014.69h-.59c-.826 0-1.104.097-1.294.453-.074.139-.089.231-.089.547 0 .331.013.403.1.558.11.197.294.34.515.401.08.022.419.041.755.041H6v.61c0 .335.019.675.041.755.107.385.396.597.855.626.485.031.803-.109.984-.433.094-.167.101-.22.114-.868l.014-.69h.606c.333 0 .671-.019.751-.041a.842.842 0 0 0 .515-.401c.087-.156.1-.226.099-.558-.001-.313-.017-.409-.089-.547-.188-.355-.467-.453-1.292-.453h-.59l-.015-.69c-.017-.769-.063-.932-.315-1.111-.264-.189-.721-.249-1.064-.142m9.885-.017a3.05 3.05 0 0 0-2.385 2.12c-.135.434-.135 1.246 0 1.68a3.086 3.086 0 0 0 2.046 2.046c.434.135 1.246.135 1.68 0a3.086 3.086 0 0 0 2.046-2.046c.135-.434.135-1.246 0-1.68-.305-.981-1.076-1.753-2.025-2.031-.361-.106-1.029-.149-1.362-.089m.811 2.021c.378.112.69.537.69.94 0 .33-.216.695-.516.871-.156.091-.23.108-.484.108s-.328-.017-.484-.108c-.581-.342-.683-1.098-.212-1.569.279-.279.612-.359 1.006-.242"></path>
	</svg>