<svg xmlns="http://www.w3.org/2000/svg" viewBox="0 0 24 24" class="wds-icon">
		<path d="M4.62 3.003c-1.08.022-1.182.03-1.481.122-.496.151-.83.359-1.243.771-.4.4-.6.717-.771 1.217l-.105.307v13.16l.105.307c.171.5.371.817.771 1.217.4.4.717.6 1.217.771l.307.105h17.16l.307-.105c.5-.171.817-.371 1.217-.771.4-.4.6-.717.771-1.217l.105-.307V5.42l-.105-.307c-.171-.5-.371-.817-.771-1.217-.61-.61-1.158-.846-2.044-.882-.712-.028-14.092-.038-15.44-.011M7.08 6.5 8.58 8H3V6.95c0-.632.018-1.112.044-1.206a1.03 1.03 0 0 1 .682-.698c.074-.021.521-.04.994-.042L5.58 5l1.5 1.5m7 0 1.5 1.5h-4.16l-1.5-1.5L8.42 5h4.16l1.5 1.5m6.336-1.403c.199.099.388.288.487.487.07.141.078.264.089 1.286L21.005 8H18.42l-1.5-1.501-1.5-1.501 2.42.011c2.301.01 2.428.015 2.576.088m-9.336 4.929a865.84 865.84 0 0 1 6.84.002c.077.004.802-.002 1.611-.013l1.47-.02-.01 4.133c-.011 4.014-.013 4.137-.089 4.29a1.418 1.418 0 0 1-.232.307c-.306.297.399.275-8.67.275-9.069 0-8.364.022-8.67-.275a1.418 1.418 0 0 1-.232-.307c-.076-.153-.078-.276-.089-4.289l-.01-4.131 3.97.017c2.184.009 4.034.014 4.111.011"></path>
	</svg>