<svg xmlns="http://www.w3.org/2000/svg" viewBox="0 0 24 24" class="wds-icon">
		<path d="M7.626 1.045c-.369.194-.675.628-.675.955 0 .333.105.467 1.401 1.768l1.222 1.229-3.057.012-3.057.012-.321.101c-.501.157-.832.364-1.243.774-.4.4-.6.717-.771 1.217l-.105.307v11.16l.105.307c.171.5.371.817.771 1.217.4.4.717.6 1.217.771l.307.105h17.16l.307-.105c.5-.171.817-.371 1.217-.771.4-.4.6-.717.771-1.217l.105-.307V7.42l-.105-.307c-.171-.5-.371-.817-.771-1.217-.411-.41-.742-.617-1.243-.774l-.321-.101-3.057-.012-3.057-.012 1.222-1.229c.804-.807 1.253-1.289 1.312-1.405.177-.352.088-.717-.259-1.064-.34-.34-.721-.431-1.073-.255-.109.055-.775.69-1.898 1.809L12 4.578l-1.73-1.725C9.147 1.734 8.481 1.099 8.372 1.044a.884.884 0 0 0-.746.001m4.454 5.981a808.62 808.62 0 0 1 4.16-.006c3.896 0 4.025.002 4.176.077.199.099.388.288.487.487.075.152.077.294.077 5.416 0 5.146-.002 5.263-.078 5.418a1.418 1.418 0 0 1-.232.307c-.306.297.399.275-8.67.275-9.069 0-8.364.022-8.67-.275a1.418 1.418 0 0 1-.232-.307c-.076-.154-.078-.284-.089-5.318-.008-3.557.001-5.214.031-5.333.084-.339.356-.626.686-.722.085-.024 1.62-.034 4.174-.026 2.222.007 4.103.01 4.18.007m4.534 3.031a.814.814 0 0 0-.505.396c-.074.139-.089.231-.089.547 0 .331.013.403.1.558.11.197.294.34.515.401.188.053 1.542.053 1.73 0a.842.842 0 0 0 .515-.401c.087-.156.1-.226.099-.558-.001-.313-.017-.409-.089-.547-.104-.197-.267-.322-.519-.398-.245-.073-1.52-.072-1.757.002m0 4a.814.814 0 0 0-.505.396c-.074.139-.089.231-.089.547 0 .331.013.403.1.558.11.197.294.34.515.401.188.053 1.542.053 1.73 0a.842.842 0 0 0 .515-.401c.087-.156.1-.226.099-.558-.001-.313-.017-.409-.089-.547-.104-.197-.267-.322-.519-.398-.245-.073-1.52-.072-1.757.002"></path>
	</svg>